<svg viewBox="0 0 24 24" xmlns="http://www.w3.org/2000/svg">
  <path d="M18.9 7.5c0-4.2-2.8-5.4-2.8-5.4C14.7 1.5 12.3 1.3 12 1.3h-.1c-.3 0-2.7.2-4.1.8 0 0-2.8 1.2-2.8 5.4 0 1-.1 2.2 0 3.5.2 4.4.8 8.7 4.9 9.8 1.9.5 3.5.6 4.8.5 2.4-.1 3.8-.8 3.8-.8l-.1-1.7s-1.7.5-3.6.5c-1.8 0-3.8-.5-4.1-2.4a4.6 4.6 0 0 1 0-.8s1.8.4 4 .5c1.3 0 2.5-.1 3.7-.2 2.3-.3 4.2-1.8 4.4-3.2.4-2.2.3-5.4.3-5.4Zm-2.4 5.5h-1.9V8.5c0-1-.4-1.6-1.3-1.6-1 0-1.4.7-1.4 2v2.5h-1.8V8.9c0-1.3-.4-2-1.4-2-.9 0-1.3.6-1.3 1.6V13H5.5V8.4c0-1 .3-1.8.8-2.4.6-.6 1.3-.9 2.3-.9 1.2 0 2 .5 2.5 1.4l.5.9.5-.9c.5-.9 1.3-1.4 2.5-1.4 1 0 1.8.3 2.3.9.5.6.8 1.4.8 2.4V13Z" fill="currentColor"/>
</svg>
