<svg viewBox="0 0 24 24" xmlns="http://www.w3.org/2000/svg">
  <path d="M12.1 3a9 9 0 0 0-3.3 17.4l1.1-4.2c-.3-.6-.5-1.5-.5-2.4 0-2 1.2-3.6 2.6-3.6 1.2 0 1.8.9 1.8 2 0 1.2-.8 3-1.2 4.6-.3 1.3.7 2.3 2 2.3 2.4 0 4.3-2.5 4.3-6.1 0-3.2-2.3-5.4-5.6-5.4-3.8 0-6.1 2.9-6.1 5.9 0 1.2.4 2.4 1 3.1.1.1.1.2.1.4l-.4 1.5c-.1.2-.2.3-.4.2-1.4-.6-2.3-2.4-2.3-4 0-3.2 2.3-6.1 6.8-6.1 3.5 0 6.2 2.5 6.2 5.9 0 3.5-2.2 6.4-5.2 6.4-1 0-2-.5-2.3-1.1l-.6 2.2c-.2.8-.7 1.8-1 2.4a9 9 0 1 0 2.4-17.7Z" fill="currentColor"/>
</svg>
