<svg viewBox="0 0 24 24" xmlns="http://www.w3.org/2000/svg">
  <path d="M12 7.8c2.8 0 5 1.5 5 3.3 0 1.8-2.2 3.3-5 3.3s-5-1.5-5-3.3c0-1.8 2.2-3.3 5-3.3Zm3.2-1.9a1.2 1.2 0 1 0 0 2.4 1.2 1.2 0 0 0 0-2.4ZM8.8 9.5a.8.8 0 1 0 0 1.6.8.8 0 0 0 0-1.6Zm6.4 0a.8.8 0 1 0 0 1.6.8.8 0 0 0 0-1.6Zm-4.6 2.3a2 2 0 0 0 2.8 0 .5.5 0 1 1 .7.7 3 3 0 0 1-4.2 0 .5.5 0 0 1 .7-.7Zm7.9-1.6a1.5 1.5 0 0 0-2.2-1.3 6.4 6.4 0 0 0-3.6-1.2l.6-2 1.7.4a1.8 1.8 0 1 0 .2-1l-2.1-.5a.5.5 0 0 0-.6.3l-.8 2.6a6.5 6.5 0 0 0-3.7 1.2 1.5 1.5 0 1 0-1 2.8c0 2.4 2.7 4.4 6 4.4 3.3 0 6-2 6-4.4a1.5 1.5 0 0 0 .5-1.1Z" fill="currentColor"/>
</svg>
