<svg viewBox="0 0 24 24" xmlns="http://www.w3.org/2000/svg">
  <path d="M16.5 11.3a4.9 4.9 0 0 0-.4-2c-.8-1.8-2.5-2.7-4.9-2.7-2.2 0-4 .9-5 2.5l1.9 1.3c.7-1.1 1.7-1.6 3.1-1.6 1.5 0 2.5.5 3 1.5.2.4.3.9.3 1.4a20 20 0 0 0-3.3.2c-2.4.4-3.8 1.7-3.8 3.6 0 2.1 1.7 3.5 4.2 3.5 2 0 3.4-.8 4.1-2.2.5-1 .8-2.3.8-3.8.8.4 1.2 1 1.2 1.8 0 1.8-1.7 3.2-4.6 3.2-3.8 0-6.3-2.4-6.3-6.1 0-3.8 2.5-6.2 6.2-6.2 3.6 0 6 2.2 6.1 5.7h2.2C20.2 7.5 17 4.6 12.7 4.6c-5 0-8.4 3.3-8.4 8.3 0 4.8 3.4 8.2 8.5 8.2 4.3 0 7-2.1 7-5.2 0-2.3-1.4-3.9-3.3-4.6Zm-2.3 3.2c0 1.8-.9 2.9-2.5 2.9-1.2 0-2-.6-2-1.5 0-.8.6-1.5 2-1.8.8-.2 1.6-.2 2.5-.2v.6Z" fill="currentColor"/>
</svg>
