<svg viewBox="0 0 24 24" xmlns="http://www.w3.org/2000/svg">
  <path d="M12 3a9 9 0 0 0-7.8 13.5L3 21l4.7-1.2A9 9 0 1 0 12 3Zm0 16.3a7.3 7.3 0 0 1-3.7-1l-.3-.2-2.8.7.7-2.7-.2-.3A7.3 7.3 0 1 1 12 19.3Zm4.1-5.6c-.2-.1-1.3-.7-1.5-.7-.2-.1-.3-.1-.5.1l-.4.5c-.1.2-.3.2-.5.1a6 6 0 0 1-2.9-2.5c-.1-.2 0-.3.1-.4l.3-.4.2-.3a.5.5 0 0 0 0-.4l-.7-1.6c-.1-.2-.3-.2-.4-.2h-.4a.8.8 0 0 0-.6.3c-.2.2-.8.7-.8 1.8s.9 2 1 2.2a8.4 8.4 0 0 0 3.3 2.9c2 .8 2 .5 2.4.5.4 0 1.3-.5 1.4-1.1.2-.5.2-1 .1-1.1-.1 0-.3-.1-.5-.2Z" fill="currentColor"/>
</svg>
